<?xml version="1.0" encoding="utf-8"?>
<!-- Svg Vector Icons : http://www.onlinewebfonts.com/icon -->
<!DOCTYPE svg PUBLIC "-//W3C//DTD SVG 1.1//EN" "http://www.w3.org/Graphics/SVG/1.1/DTD/svg11.dtd">
<svg version="1.1" xmlns="http://www.w3.org/2000/svg" xmlns:xlink="http://www.w3.org/1999/xlink" x="0px" y="0px" viewBox="0 0 1000 1000" enable-background="new 0 0 1000 1000" xml:space="preserve">
<metadata> Svg Vector Icons : http://www.onlinewebfonts.com/icon </metadata>
<g><path d="M908.3,10c-22.6,0-40.8,18.3-40.8,40.8c0,5.9,1.5,11.5,3.8,16.6L708,295.8c-1.3-0.1-2.5,0-3.8,0c-8.2,0-16,2.3-22.3,6.4l-141-70.2c-1.3-21.4-19.1-38.3-40.8-38.3c-22.6,0-40.8,18.3-40.8,40.8c0,2.2,0.3,4.3,0.6,6.4L310.5,359.6c-4.5-1.7-9.5-2.6-14.7-2.6c-20.4,0-37.1,14.9-40.2,34.5l-139.1,56.1c-6.9-5.4-15.4-8.9-24.9-8.9c-22.6,0-40.8,18.3-40.8,40.8s18.3,40.8,40.8,40.8c20.6,0,37.4-15.3,40.2-35.1L271,429.8c6.9,5.4,15.4,8.9,24.9,8.9c22.6,0,40.8-18.3,40.8-40.8c0-2.2-0.3-4.3-0.6-6.4l149.3-118.7c4.5,1.7,9.5,2.6,14.7,2.6c8.2,0,16-2.3,22.3-6.4l141,70.2c1.3,21.4,19.1,38.3,40.8,38.3c22.6,0,40.8-18.3,40.8-40.8c0-5.9-1.5-11.5-3.8-16.6L904.5,91.7c1.3,0.1,2.5,0,3.8,0c22.6,0,40.8-18.3,40.8-40.8C949.2,28.3,930.9,10,908.3,10z M826.7,275.4V990H990V275.4H826.7z M418.3,459.2V990h163.3V459.2H418.3z M622.5,561.3V990h163.3V561.3H622.5z M214.2,622.5V990h163.3V622.5H214.2z M10,704.2V990h163.3V704.2H10z"/></g>
</svg>