
<svg xmlns="http://www.w3.org/2000/svg" class="svg-navigation" viewBox="0 0 1000 1000">
	<g>
		<path d="M846.5,846.5C753.9,939,630.9,990,500,990c-130.9,0-253.9-51-346.5-143.5C61,753.9,10,630.9,10,500c0-130.9,51-253.9,143.5-346.5C246.1,61,369.1,10,500,10c130.9,0,253.9,51,346.5,143.5C939,246.1,990,369.1,990,500C990,630.9,939,753.9,846.5,846.5z M788.9,211.1C711.7,133.9,609.1,91.4,500,91.4c-109.1,0-211.7,42.5-288.9,119.7C133.9,288.3,91.4,390.9,91.4,500c0,109.1,42.5,211.7,119.7,288.9c77.2,77.2,179.7,119.7,288.9,119.7c109.1,0,211.7-42.5,288.9-119.7c77.2-77.2,119.7-179.8,119.7-288.9C908.6,390.9,866.1,288.3,788.9,211.1z M459.7,418.4h80.6v326.4h-80.6V418.4z M459.7,255.2h80.6v81.6h-80.6V255.2z"/>
	</g>
</svg>