<?xml version="1.0" encoding="utf-8"?>
<!-- Svg Vector Icons : http://www.onlinewebfonts.com/icon -->
<!DOCTYPE svg PUBLIC "-//W3C//DTD SVG 1.1//EN" "http://www.w3.org/Graphics/SVG/1.1/DTD/svg11.dtd">
<svg version="1.1" xmlns="http://www.w3.org/2000/svg" xmlns:xlink="http://www.w3.org/1999/xlink" x="0px" y="0px" viewBox="0 0 1000 1000" enable-background="new 0 0 1000 1000" xml:space="preserve">
<metadata> Svg Vector Icons : http://www.onlinewebfonts.com/icon </metadata>
<g><g transform="translate(0.000000,511.000000) scale(0.100000,-0.100000)"><path d="M8734.9,4592.9c-315.6-86.8-657.5-339.3-828.4-612.8c-57.9-89.4-2559-4865.4-2906.1-5543.9l-42.1-84.1l-165.7,39.5c-460.2,107.8-991.5-55.2-1333.4-412.9l-123.6-128.8l-1483.3,775.8C992.4-927.3,337.5-601.2,298.1-601.2c-168.3,0-260.4-199.9-149.9-323.5c34.2-39.5,686.4-397.1,1520.1-831.1c1133.5-594.4,1459.6-773.2,1454.4-810c0-26.3-18.4-142-36.8-257.7c-60.5-399.8,78.9-817.9,386.6-1141.4c547-581.2,1446.5-594.4,2009.3-31.5c560.2,565.4,568.1,1428.1,15.8,1993.5l-165.7,168.3L6796.7,971.5c1606.9,3074.4,1556.9,2990.3,1880.4,3150.7c144.6,68.4,181.5,76.3,433.9,76.3c234.1,0,299.8-10.5,428.7-63.1c144.6-63.1,152.5-63.1,242-21c155.2,73.6,157.8,268.3,5.3,360.3c-165.7,102.6-402.4,157.8-673.3,155.2C8974.3,4629.8,8803.3,4611.4,8734.9,4592.9z M4905.7-2092.4c213.1-99.9,378.7-263,481.3-481.3c73.7-155.2,81.5-194.6,81.5-420.8c0-231.4-7.9-265.6-86.8-426.1c-176.2-360.3-491.8-554.9-899.5-557.5c-197.2-2.6-244.6,7.9-399.8,81.5c-418.2,197.2-657.5,641.7-573.3,1065.1c55.2,286.7,194.6,504.9,415.5,657.5C4211.4-1976.7,4590.1-1945.1,4905.7-2092.4z"/><path d="M1460.5,1739.4C924,711.1,484.8-138.3,484.8-151.5c0-34.2,2679.9-1422.8,2750.9-1422.8c152.5,0,249.8,218.3,149.9,336.6c-26.3,28.9-562.8,320.9-1191.4,649.6C1565.7-259.3,1047.6,11.6,1045,14.2c-5.2,5.3,1556.9,3011.3,1575.3,3027.1c13.1,13.2,3003.4-1559.6,3013.9-1585.8c2.6-13.2-255.1-520.7-573.3-1130.9c-384-736.4-578.6-1133.5-578.6-1188.7c0-168.3,226.2-257.7,344.5-136.8c47.3,50,1401.8,2632.6,1388.6,2648.4c-15.8,13.1-3689.8,1927.7-3734.5,1946.2C2446.7,3606.7,2244.2,3238.5,1460.5,1739.4z"/><path d="M3209.4,2078.7c-81.5-65.8-92-199.9-21-281.4c76.3-89.4,1104.6-610.2,1204.5-610.2c165.7,0,257.7,223.5,136.7,334c-92,84.2-1115.1,612.8-1186.1,612.8C3306.7,2133.9,3248.9,2110.3,3209.4,2078.7z"/><path d="M7020.2-693.3c-86.8-84.2-89.4-218.3-5.3-297.2c60.5-57.9,71-57.9,1075.7-57.9c560.2,0,1036.2,7.9,1059.9,15.8c47.3,18.4,118.3,144.6,118.3,207.8c0,23.7-34.2,78.9-76.3,121l-76.3,76.3H8098.5H7083.3L7020.2-693.3z"/><path d="M7654-1945.1c-97.3-76.3-97.3-234.1,0-310.3c68.4-52.6,97.3-55.2,1094.1-55.2h1023l63.1,65.7c42.1,39.5,65.8,94.7,65.8,144.6s-23.7,105.2-65.8,144.6l-63.1,65.8h-1023C7751.3-1889.9,7722.4-1892.5,7654-1945.1z"/></g></g>
</svg>